<svg xmlns="http://www.w3.org/2000/svg" version="1.1" xmlns:xlink="http://www.w3.org/1999/xlink" xmlns:svgjs="http://svgjs.com/svgjs" width="4000" height="2000" preserveAspectRatio="none" viewBox="0 0 4000 2000"><g mask="url(&quot;#SvgjsMask1323&quot;)" fill="none"><rect width="4000" height="2000" x="0" y="0" fill="url(#SvgjsLinearGradient1324)"></rect><path d="M4000 0L3743.29 0L4000 581.69z" fill="rgba(255, 255, 255, .1)"></path><path d="M3743.29 0L4000 581.69L4000 965.8700000000001L1921.61 0z" fill="rgba(255, 255, 255, .075)"></path><path d="M1921.6100000000001 0L4000 965.8700000000001L4000 1019.5700000000002L1115.04 0z" fill="rgba(255, 255, 255, .05)"></path><path d="M1115.04 0L4000 1019.5700000000002L4000 1239.15L1034.57 0z" fill="rgba(255, 255, 255, .025)"></path><path d="M0 2000L325.92 2000L0 1055.9299999999998z" fill="rgba(0, 0, 0, .1)"></path><path d="M0 1055.9299999999998L325.92 2000L938.54 2000L0 858.7799999999999z" fill="rgba(0, 0, 0, .075)"></path><path d="M0 858.78L938.54 2000L2069.42 2000L0 816.11z" fill="rgba(0, 0, 0, .05)"></path><path d="M0 816.1099999999999L2069.42 2000L2672.67 2000L0 357.6699999999999z" fill="rgba(0, 0, 0, .025)"></path></g><defs><mask id="SvgjsMask1323"><rect width="4000" height="2000" fill="#ffffff"></rect></mask><linearGradient x1="87.5%" y1="-25%" x2="12.5%" y2="125%" gradientUnits="userSpaceOnUse" id="SvgjsLinearGradient1324"><stop stop-color="#0e2a47" offset="0"></stop><stop stop-color="rgba(193, 193, 193, 1)" offset="1"></stop></linearGradient></defs></svg>