<svg id="Capa_1" enable-background="new 0 0 512 512" height="512" viewBox="0 0 512 512" width="512" xmlns="http://www.w3.org/2000/svg"><g><g><path d="m256 0c-141.385 0-256 114.615-256 256 0 18.643 2.011 36.814 5.796 54.325l195.879 195.879c17.511 3.785 35.682 5.796 54.325 5.796 141.385 0 256-114.615 256-256s-114.615-256-256-256z" fill="#0c99e6"/></g><g><g><path d="m207.295 346.453-41.748-41.748c36.745-55.118 84.041-102.413 139.158-139.158l41.747 41.748c-36.744 55.117-84.04 102.413-139.157 139.158z" fill="#ebf0f3"/></g><g><path d="m228.237 228.237c-23.307 23.307-44.317 48.91-62.689 76.469l41.748 41.748c27.558-18.372 53.16-39.381 76.467-62.687-15.333 15.331-40.192 15.33-55.525-.002-15.335-15.335-15.335-40.195-.001-55.528z" fill="#ceddf7"/></g><g><path d="m144.673 283.832c7.686-7.686 20.146-7.686 27.832 0l55.663 55.663c7.686 7.685 7.686 20.146 0 27.832-7.685 7.686-20.146 7.686-27.832 0l-55.663-55.663c-7.685-7.686-7.685-20.147 0-27.832z" fill="#ceddf7"/></g><g><path d="m186.421 325.579c7.686-7.686 20.146-7.686 27.832 0l-41.747-41.747c-7.685-7.685-20.146-7.686-27.832 0-7.686 7.686-7.685 20.146 0 27.832l41.747 41.748c-7.686-7.687-7.686-20.147 0-27.833z" fill="#aac5ee"/></g><g><path d="m283.832 144.673c7.686-7.686 20.146-7.686 27.832 0l55.663 55.663c7.686 7.686 7.686 20.146 0 27.832-7.686 7.685-20.146 7.685-27.832 0l-55.663-55.663c-7.686-7.686-7.686-20.146 0-27.832z" fill="#ceddf7"/></g><g><path d="m325.579 186.421c7.686-7.686 20.146-7.686 27.832 0l-41.747-41.747c-7.685-7.685-20.146-7.686-27.832 0-7.686 7.686-7.685 20.146 0 27.832l41.747 41.747c-7.685-7.686-7.685-20.147 0-27.832z" fill="#aac5ee"/></g><g><path d="m452.408 255.471-84.552-111.327-111.327-84.552-1.801 47.403c-.2 5.267 1.804 10.379 5.531 14.106l130.64 130.64c3.727 3.727 8.839 5.732 14.106 5.532z" fill="#3e4a68"/></g><g><path d="m411.8 214.864-43.945-70.719-70.719-43.945-13.305 44.473 83.496 83.495z" fill="#303a59"/></g><g><path d="m510.185 197.694-111.327-84.552-84.552-111.327 47.403-1.801c5.267-.2 10.379 1.804 14.106 5.531l130.64 130.64c3.727 3.727 5.732 8.839 5.531 14.106z" fill="#3e4a68"/></g><g><path d="m469.578 157.086-70.719-43.945-43.945-70.718 44.473-13.305 83.495 83.495z" fill="#303a59"/></g><g><path d="m342.502-9.864h81.71v277.015h-81.71z" fill="#303a59" transform="matrix(.707 -.707 .707 .707 21.318 308.753)"/></g><g><path d="m342.502 47.564h81.71v162.158h-81.71z" fill="#3e4a68" transform="matrix(.707 -.707 .707 .707 21.318 308.753)"/></g><g><path d="m193.162 504.219-80.021-105.36-105.36-80.021c22.94 90.895 94.486 162.441 185.381 185.381z" fill="#3e4a68"/></g><g><path d="m42.422 354.914-8.521 28.483c22.61 39.333 55.369 72.091 94.702 94.702l28.483-8.521-43.945-70.719z" fill="#303a59"/></g><g><path d="m255.471 452.408-111.327-84.552-84.552-111.327 47.403-1.801c5.267-.2 10.379 1.804 14.106 5.531l130.64 130.64c3.727 3.727 5.732 8.839 5.532 14.106z" fill="#3e4a68"/></g><g><path d="m214.864 411.8-70.719-43.944-43.945-70.719 44.473-13.305 83.495 83.495z" fill="#303a59"/></g><g><path d="m5.796 310.325c.758 3.506 1.577 6.988 2.476 10.439l182.964 182.964c3.451.9 6.933 1.719 10.439 2.476l53.796-53.797-195.879-195.878z" fill="#303a59"/></g><g><path d="m87.788 302.278h81.71v162.158h-81.71z" fill="#3e4a68" transform="matrix(.707 -.707 .707 .707 -233.396 203.247)"/></g></g></g></svg>